<svg xmlns="http://www.w3.org/2000/svg" viewBox="0 0 2615 302.06"><style><![CDATA[.F{fill:#fff}.G{fill:none}.H{stroke:#fff}.I{stroke-miterlimit:3.67}.J{stroke-width:.58}]]></style><path d="M2612.46 5.1l-5.43 16.43a33.09 33.09 0 0 1-2.09 4.22l-2.83-3.67a22.87 22.87 0 0 1-1.33-3.3c-1.33 4.5-1.88 7.9-3.3 10.87a134.34 134.34 0 0 1-7.83 13.69c-.74 1.17-1.8 1.14-3.65-.14-2.9-2-3-7.5-8.22-6.65-.44.08-1.62-2.6-2-4.12-1.62-7-3.06-14-5.74-20.88-.73 4.26-1.32 8.56-2.23 12.8a38.65 38.65 0 0 1-2.54 8c-2.9 6.27-3 6.22-8.7 1l-1.52 9.1c-.13.8.06 2.24-.3 2.38-10.22 4.06-7.8 15-12.2 22.2-.15.25-.5.38-1.3 1l-1.74-8.5-1.07-.3c-1.1 3.1-2.77 6.1-3.2 9.27-.62 4.4-2.95 6-7 6.83-5.26 1.1-11 1.45-14.25 7-.6 1-2.6 1.48-4 1.6-9 .73-16 4.93-21.5 12a10 10 0 0 1-2.33 2.55c-.73.45-1.85.27-2.8.36a5.69 5.69 0 0 0 .41-2.08l-3.2-14.8c-1.25-6-5.6-7.47-11-8.1-4.34-.5-4.7-2.36-2.32-6a22 22 0 0 0 2.64-7.06c.77-3.33-.27-7.25 5.42-7.68 2.06-.15 3.86-3.64 6.24-6.08-8.35-.6-4.8-9.47-9.16-13.78s-9.86-7.52-13.55-4.73c-2.54 1.93-4.94 4.3-2.07 7.9a1.71 1.71 0 0 1 .09 1.6l-9.4 14.2c-.6.92-1.17 2.44-.8 3.3 1.7 4.1 1.1 5.8-3.88 6.17-2.3.17-3.2 4.54-.65 5.37 9.92 3.22 6.72 11.93 7.42 18.2.66 6-2 12.24-3 18.4-.68 4.42-.64 9-1.47 13.35-.8 4.16-6.2 5.94-9.8 3.57-.13-.1-.27-.24-.4-.24-8.68.06-4.9-5.73-4.14-9.5 1.2-6 1.72-11.22-2.23-17a17.25 17.25 0 0 1-1-16.74c2.08-4.37 1.15-8 .12-12-.36-1.38-2-3.2-1.53-3.9a43.11 43.11 0 0 1 5.57-6.32 10.55 10.55 0 0 1 2.15-1.31c-10.14-5.8-10.14-5.8-15.36-1.12-1.32-4.26-3.6-7.45-8.6-7.56-4.75-.1-6.27 1.5-6.54 6.3-.1 1.6-1.27 3.16-1.24 4.73.18 8.1-3.87 15.14-5.56 22.74-2.27 10.17 3.5 16.7 14.52 14.75 3-.52 3.2.9 2.92 3l-4.66 32.4c-.38 3.07-1.84 4.1-4.34 4.16-6.48.13-13 0-19.2 0 .1-2.2.37-4 .27-5.87-.3-5.3-.74-10.6-1.16-15.9a5.3 5.3 0 0 0-.52-2.38c-3.7-5.74-5.44-12.17-7.7-18.52-1.82-5.13-.3-10-1.8-14.76a28.81 28.81 0 0 0-1.65-5.19c-4.1-7.55-4.06-7.42-2.9-8.4 2.4-2 4.72-4.16 7-6.27.2-.2.27-.56.46-1-4.23-2-8.4-3.92-10.2-8.9-1.1-3-12.2-5.18-16.27-3.46-4.62 2-6.2 5.3-4.93 10.47.62 2.52-.75 5.46-.78 8.2s.52 5.72.7 8.6a9.72 9.72 0 0 1-.23 4.15c-2.6 6.07-1.66 9 4 11.9a10.85 10.85 0 0 1 2.26 2.19 30 30 0 0 1-2.81 1.33 9 9 0 0 1-2.9.69c-3.6 0-5.27 1.5-4.45 5.25s2.34 6.28 6.83 4.33c3.7-1.6 5.8.34 6.78 3.62 1.68 5.57 2.3 11 .78 17-2.18 8.6-2.66 17.63-4.12 26.44a5 5 0 0 1-2.83 3.4c-8 2.14-16 4.1-24.1 5.78-5.3 1.1-10.74 2.2-16.1 2.2a44.89 44.89 0 0 0-16.85 3.47c-12 4.73-24.4 9.32-37.58 7.5-7.9-1.1-15.45-4.53-23.32-6a208.43 208.43 0 0 0-25.56-3c-9.52-.6-19.05 2.73-28.68-.63-5.9-2.05-12.2-2.84-18.33-4.2a7.45 7.45 0 0 1-2.38-.64c-10.7-7-23.36-6.88-35.2-9.6-6.3-1.45-11.63-4.16-15.6-9-6.1-7.5-14.43-7.46-22.62-6.74-7.9.7-15.95 2-21.22 9.23-.6.8-1.32 1.5-1.92 2.3-7.28 9.6-13.84 19.87-22.1 28.52-3.8 4-10.92 4.8-16.56 7-.9.35-2.27-.06-2.87.5-5.12 4.65-10.53 3.74-17 3-7.17-.83-14.3-.93-21.24-3.4-3.53-1.26-6.53.1-9.47 2.74-4.5 4-9.74 7.17-14.4 11-2.07 1.73-3.34 4.38-5.2 6.4s-4.1 4-6.18 5.87c-.35.32-1.12.3-1.3.66-3 5.84-9.76 4.62-14.34 7.5-4.24 2.67-8.64 1.6-13.4.93-6.9-1-14.64-2.07-20.95.06a68.36 68.36 0 0 1-29.77 3.46 76.32 76.32 0 0 0-14.94-.56c-9.27.84-17.24-2.32-25.07-6.63a25.51 25.51 0 0 0-6.93-2.44l-31.13-6.4a11 11 0 0 1-5.09-2.9c-9.32-9.35-21-11.58-33.56-12.06-7.48-.3-14.68-2.54-20.4-7.7-3.13-2.83-6.2-1.85-9.7-1.56-7 .57-14.12 1.3-21 .35s-13.55-4.4-20.5-5.8c-6.76-1.36-13.77-1.52-21.1-2.25 4.65-4.7 7.53-9.76 6.4-16.5-1.15-6.94-5.44-10.87-11.64-13-7.72-2.63-8.1-3-7.32-10.83l5.83 2.8-.2-6.9c0-.66-.42-1.43-.2-2 2.74-6.44-2.34-8.9-6-12.17-3.93-3.48-3.82-5.06 1-6s5-4.8 3.78-7c-1.55-2.87-5.15-4.63-7.93-6.8a3.35 3.35 0 0 0-1.11 1.28c-1.4 4.85-4.14 3.65-8 2.9a94.81 94.81 0 0 0-20.35-1.36c-7.48.2-11.9 7-10.16 14.45.6 2.58 1 5.2 1.74 7.77a8 8 0 0 1-7.59 10.46c-12.6.53-19.8 8.4-17.1 19.5.9 3.75 3.92 7 6.06 10.6-8.92 1.64-18.2 5.6-27.22-2.63-9.94-9.07-22.85-9.28-35.28-9.1-11.4.17-22.77 1.9-34.16 2.63a25.45 25.45 0 0 1-8.38-1.29c-4.33-1.25-9.2-2-12.68-4.56-6.63-4.9-12.4-11-18.6-16.45-2-1.72-3.94-4.08-6.25-4.58-5.13-1.1-8.3-4.45-11.85-7.75-3.2-3-6.84-5.93-10.83-7.56-8.54-3.5-17.26-6.9-26.23-8.92-10.73-2.4-21.78-3.44-32.72-4.78-4.2-.52-6.92-1.76-6.54-6.6a33 33 0 0 0-.45-5.31c-2.25 1.06-3.22 5.42-6.52 2.84-1.64-1.28-3.62-2.87-4.12-4.7-1.1-3.88-2.28-4.3-5.35-1.7-1.2 1-3.33 1-5 1.4a20.69 20.69 0 0 0-1-4.42 48.63 48.63 0 0 0-3.49-6.11c-2.75-4.25-5.94-8.25-5.72-13.78 0-.9-1-1.84-2-3.37l-4.62 16.23a70.8 70.8 0 0 1-3.12 8.17 2.48 2.48 0 0 1-2.34.42c-3.4-2.43-6.52-5.07-6.83-9.8a5.26 5.26 0 0 0-2.22-3.67c-3.88-2.2-5.63-1-7.3 4.67a31.61 31.61 0 0 0-.69 4.68l-1.26.24-3.16-11.9a13.4 13.4 0 0 0-1.92-3.07c-.38 1.1-.8 2.18-1.14 3.3l-6.6 22-3.53-11.2c-2.64 6.87-5 13.48-7.82 19.88-.5 1.12-2.92 1.92-4.46 1.94-3.22 0-7.64 1.18-6.86-4.8-5.82 2.45-5.93 2.16-6.9-4-1-6.62-2.65-13.16-4.07-20l-6.13 21.83a8.27 8.27 0 0 1-1.54 3.08 17 17 0 0 1-2.94 2.27l-1.37-3-.54-1.1c-2.43 1.45-4.78 4.1-7 4l-62.78-2.83-62.3-3-83.2-4-393.6-19q-41.6-2-83.2-4c-16.27-.8-32.57-1.25-48.8-2.68-6-.52-12.58 1.87-18.06-2.64a2.72 2.72 0 0 0-2.41-.3c-7.42 3.66-14.8.26-22-.4C428.6 46.78 409.32 44.2 390 42q-27.7-3.18-55.44-6.33-28.2-3.26-56.4-6.58-33.65-3.9-67.3-7.77-27.24-3.13-54.46-6.23-33.9-3.9-67.8-7.84l-46.5-5.5C41 1.6 32.73.34 31.72 0H25c7 1 13.93 3.1 20.9 3.9q33.66 4 67.33 7.8L178.1 19l56.44 6.54q27.72 3.2 55.44 6.38l67.3 7.8 56 6.3 56.77 7.12c4.77.62 6.77 4.4 6.88 8.5.05 2-2.37 4.14-3.67 6.22l-1.27-.7a32.68 32.68 0 0 0-.65-3.71c-1.13-3.87-3.67-6.12-7.77-5.18s-4.42 4.26-3.62 7.54a47.53 47.53 0 0 1 1.23 13.91c-.48 9.9 9.4 24.06 18 27.23 3.56 1.32 7.14 1.45 10.3-1.35 1.74-1.54 4.1-2.58 5.37-4.4 4-5.8 10.05-5.44 15.9-5.72 1 0 2.3-.27 2.93.24 3.1 2.5 6 4.77 8.67-.48.14-.28 2.34.32 3.46.8.7.3 1.3 1.7 1.74 1.62 1.57-.28 3.72-.55 4.46-1.64a107.86 107.86 0 0 0 5.63-10.24c-.9-.08-2-.55-2.64-.2-9.78 5.56-19 3.77-28.18-1.65a6.78 6.78 0 0 0-4.64-1c-3.1.86-6 2.76-8.8-.66-.3-.34-2.48.94-3.8 1.42s-3 1.57-3.76 1.1a4.76 4.76 0 0 1-1.61-3.78c.22-3.53 1-7 1.37-10.55a39.06 39.06 0 0 0-.29-5.38c-.1-2.15-.62-4.42-.13-6.44.65-2.6 1.36-5.44 5.4-5.22l60.27 3 580.37 28q41.34 2 82.7 4c2.15.1 4.37.76 6.42.4 5.6-1 6.85 2.58 8.17 7.3-5.55-2.18-6.13.66-7.1 5-1.18 5.2-4.1 10-6.83 16.23l-2.7-10.17-3 7.93c-1.64 4.24-2.74 8.84-5.12 12.62-3 4.78-7.06 8.9-10.7 13.28-.85 1-1.92 1.85-2.8 2.84a4.07 4.07 0 0 0-.59 1.36c-5.9 15.8-17.76 21.6-34.06 22.15-10.13.34-20.15 3.42-30.24 5.2-4.87.86-9.76 2.1-14.67 2.22-13.1.34-26.26-.46-39.3.4-9.84.66-19.6 2.92-29.27 5.08-3.1.7-3.52.18-4.14-2.54-2.8-12.24-3.3-24.67-2.77-37.1.2-4.4 2.72-8.64 3.4-13.07.6-3.9.13-8 .13-12.63l44.74-2.07c11-.68 21.9-1.22 32.6 2 .64.2 1.32.2 2 .4 5.94 1.85 8.6 0 9.08-6.22.55-7.17-2-12.14-9.35-13.8-9.65-2.18-19.65-4.2-29.46-4-34.3.75-68.62 1.75-102.8 4.14-20 1.4-39.72 5.67-59.56 8.7a33.65 33.65 0 0 0-4.82 1.21c-14.35 4.46-13.4 13.57-7.4 23.44.63 1 3.3 2 4.3 1.5 12.26-6 25.36-8.74 38.77-9.95 15.56-1.4 31.17-2.32 46.78-3.14 2.36-.12 4.85 1.34 7.2 2.25a11.07 11.07 0 0 1 3.36 2.06c2.13 1.94 7-2.08 7.36 3.34a54.84 54.84 0 0 1-.19 9.24c-.86 8-2.26 15.9-2.8 23.9-.2 3.06 1.66 6.2 2 9.35a135.67 135.67 0 0 1 1.34 16.82c0 4.46-1.9 7.5-7.28 8.3-10.12 1.48-16-1.3-21-10.06-2.65-4.7-5.07-9.3-12.4-9.8a63 63 0 0 0-28.7 4.72 81.85 81.85 0 0 1-36 5.75c-9.28-.7-18.63-.6-27.92-1.27a25.68 25.68 0 0 1-9.9-2.81c-3.66-2-6.94-3.05-11.2-2-14.3 3.52-28.82 3.32-43.47 3.54-12.73.2-25.38 4.15-38.1 6.13-6.35 1-12.8 1.32-19.23 1.86-.33 0-.74-.75-1.1-1.15.8-.4 1.6-1.14 2.44-1.17 3.24-.14 6.5 0 9.74 0 3.53 0 4.6-1.58 3.92-5.13-.24-1.26 1.1-3.64 2.32-4.22 10-4.73 20.2-9.07 30.25-13.7a82.38 82.38 0 0 0 9.91-5.65c.94-.6 1.35-2 2-3.1-1.2.13-2.55-.07-3.56.44l-26.15 13.32-13.3 6.76c-1.17.55-2.74.2-4.06.52-1.65.4-4 .64-4.67 1.77-1.28 2.12-2.38 4-4.82 2.33s-4.87-3.74-6.13-6.23c-.65-1.3 1.26-3.9 2.2-6.42a23.26 23.26 0 0 0-3.29-3.66c-1.65-1.32-4-3.3-5.5-2.93-2.42.6-6.3 3-6.25 4.5.18 6.48-3.6 6.75-9 6.18 1.3 1.8 2.4 2.86 2.9 4.14.74 1.87.93 3-1.23 5.2-9.3 9.33-20.62 6.42-31.1 5.27-11-1.2-21.34-.93-31.88 2.3a57.28 57.28 0 0 1-15.18 2.1l-48.94.53a7.16 7.16 0 0 1-5-2.8c-5.1-7.33-9.75-15-14.84-22.32a12.09 12.09 0 0 0-5.39-4c-5.88-2.25-5.44-1.9-3-7.66 1.3-3.1 2.07-5.4 6.13-4.8-2.36-2.8-4.15-5.5-6.53-7.53-1.35-1.14-4-2-5.46-1.44-1.7.72-2.93 3-4 4.84s-.9 4.64-2.3 5.64c-9.54 6.92-15.42 16.2-18.87 27.26a33.46 33.46 0 0 1-2.42 4.92c-4.1 8.2-4.23 8.05-13.2 6.6a134.79 134.79 0 0 0-19.72-1.93c-3.9-.06-6.53-1.07-8.8-4.14-1.65-2.22-35.35-39.46-37.4-41.56-2.46-2.08-4.7-4.48-7.4-6.2-11-7.07-22.48-13.58-33.23-21.07-3.46-2.4-5.12-1.82-8 .07-8.72 5.77-18 10.78-26.32 17.06-5.06 3.82-8.48 0-12.62-.67a8 8 0 0 1 .24-2.31c.06-.2.94-.1 1.4-.27l6.37-2.48c-2.12-1.43-4.08-3.72-6.37-4.12-6.16-1.06-7.5-5.7-9.2-10.4-.4-1.1-1.26-2.7-2.15-2.88-3.85-.8-8-3-11.15 1.86-.72 1.14-2.8 1.42-4.36 2.15-.52-1.77-.63-3.37-1.44-4.45a4.62 4.62 0 0 0-3.3-1.56c-.64 0-1.8 1.54-1.83 2.4-.1 4.67-4.4 5.16-7 7-1.4 1-3.45.87-2.54-2.5 1.5-5.53-.7-10.55-4.05-14.86-.52-.66-3.57-.15-4.82.72-2.36 1.64-3.5 2.27-4.12-1.35-.14-.85-2.74-2.22-3.56-1.86-6.5 2.82-7 2.74-10.12-3.64-2.63-5.35-6.86-5.88-12.62-4.4-7.36 1.9-10.8 8.63-17 11.58-.86.4-1.8.63-2.62 1.1a9.13 9.13 0 0 0-1.55 1.38c3.14 3.3-.7 5.5-1.33 8.2a7.26 7.26 0 0 1-1.19 1.94c-.53-.5-1.1-.95-1.58-1.47-.78-.8-1.4-2.16-2.3-2.4a13.31 13.31 0 0 0-5.58-.22c-.5.1-.93 2.22-.9 3.4.07 3.87-1.2 8.1 2.5 11.2a1.4 1.4 0 0 1 .23 1.32l-9.28 10.55c-.83.92-2.27 1.43-2.8 2.46-1.86 3.6-3.1 1.68-4.32-.34a10.08 10.08 0 0 1-.59-2.39q-3.07-11.38-6.2-22.77a5.85 5.85 0 0 0-.89-1.39l-7.83 24.3-4.32-11.94-4.4-11.3-6.68 14.9-6.48-14.26L211.94 132l-10.33-30.27-3.17 3.4-1.43-4.07-2.3-6.23c-1.23 1.4-2.22 3.34-3.8 4.1-4.37 2.15-8.17 2.2-7.88-5.43l-1.8 1.14-.62 11.4a4.51 4.51 0 0 1-.51 2.26l-8.63 11.7-7.78-23.8-1.6 7.28c-.73 3.77-2 5.1-5.73 5.9-.55.12-.9 1-1.47 1.3-1.16.68-3 2.05-3.47 1.7-1.58-1.27-3.54-3-3.84-4.8-1.17-7.17-1.64-14.45-2.66-21.66-.28-2-1.55-3.86-2.36-5.8L140.8 80l-3.22 18.9c-.2 1.25-.2 2.52-.3 3.8a38 38 0 0 0-3.82-1.58c-3.86-1.14-5.43-3.56-5.67-7.66-.16-2.58.1-6.26-4.13-6.9-.6-.1-1.35-1.1-1.55-1.83l-3.3-13.12a45.8 45.8 0 0 0-2.7-7.34c-1-2.1-2.08-1.85-2.8.37a12.41 12.41 0 0 1-1.29 2.28 18.63 18.63 0 0 1-2.39-2.21c-4.58-6-4.34-13.27-5.33-20.2a3.29 3.29 0 0 0-1.36-2.33 52.78 52.78 0 0 0-1.81 5.36l-3.3 15.9a4.69 4.69 0 0 1-.82 1.71c-4.87-1.3-4.52 3-6.08 5.4-.84 1.32-3.33 3.18-3.8 2.87-2.13-1.47-4.7-3.27-5.7-5.57-2.82-6.5-4.94-13.3-7.62-20.8-.7 2.9-1.07 5.1-1.77 7.18-.25.73-1.3 1.18-2 1.76A8 8 0 0 1 69 54l-5.63-22.58-2.15 7.08c-.72 2.4-1.36 4.84-2.2 7.2-.2.57-1 .92-1.6 1.37a11.26 11.26 0 0 1-.77-1.88c-.93-4.38-1.82-8.77-3.9-13.23-1.78 4.26-3.25 8.7-5.45 12.72-1.35 2.46-3.76 4.35-5.82 6.36-.34.33-1.85.2-2-.13A102.42 102.42 0 0 1 35 40.72c-1.34-3.8-2.25-7.75-3.22-11.16l-9.23 17.06c-.64 1.24-.58 2.83-1 4.24s-.55 3.4-1.25 3.6c-1.4.4-3.82.3-4.58-.62-2.52-3-3.36-2.7-4.76.9a10 10 0 0 1-5.09 5.19C4.9 60.3 1.66 56.4 0 55v247h2615V10.77zM478 77.65a15.2 15.2 0 0 1-2.41-1.79 54.67 54.67 0 0 1 3.13-5.17l1.95 1.2zm6-16.58l-6.84-7.72c6.3-.57 6.84.01 6.76 7.72zm537.47 56.17h-6.87v-1h7zm-507.8 70.8l-28.4-2.6c-1-.1-2.33-1.77-2.6-2.93l-8.55-38.14c-.13-.6.44-1.38.78-2.1 2.84 3.38 36.57 41.48 39.06 44.47zM1026.9 158c2.3 7.06 4.44 13 6.1 19.14a9.19 9.19 0 0 1-.9 5.72c-.65 1.43-2.32 2.4-3.53 3.58-.56-1.33-1.57-2.65-1.6-4-.15-7.68-.07-15.33-.07-24.44zM742 193.22c.32-.1.82.48 1.82 1.13a34.85 34.85 0 0 1-3.59 1.33c-.12 0-.48-.86-.73-1.32a14.38 14.38 0 0 1 2.5-1.14zM700.82 213a78.88 78.88 0 0 1-18.6-5.17l16-2.9c1.76-.34 4-.48 5.1-1.6 8-7.75 18.9-6 28-9.5.38 7.38-5.07 9.07-9.94 11.44-4.3 2.1-8.33 4.75-12.7 6.6a15.31 15.31 0 0 1-7.85 1.11zm372.7 31c-33.18-2-66.1 1-99.08 3.83-16.52 1.42-32.87-.7-49.16-3.3-29.7-4.7-59.3-10.07-89.6-8.57-13.56.67-27.17 1-40.74.8a132.74 132.74 0 0 1-22.67-2.78c-11.87-2.27-23.8-4.57-35.38-7.92-9.58-2.77-18.72-7.08-29.13-11.13L725 205.9c1.78-.95 3-1.37 3.12 1.47.28 5.47 3.93 8.42 8.73 9.54 11.12 2.6 22.32 4.83 33.52 7.06 6.17 1.22 12.42 2.1 18.62 3.2 5 .9 7.44-1.7 8.7-6a14.28 14.28 0 0 0 .31-2c1.43-9.3.7-10.9-8-13.83-7.18-2.42-13.4-7.47-21.53-7.5-1.3 0-2.6-2.8-3.88-4.32 1.42-.44 3-1.5 4.26-1.25 9.26 1.75 18.46 3.8 27.7 5.66l50.67 10.1a58 58 0 0 1 11.46 3.15c14.37 6.17 29.3 7.25 44.78 7.13 14.9-.12 29.8 2.16 44.73 2.67l82.82 2.3c10.57.58 21 4.27 31.43 7 14.42 3.75 28.73 7.9 43.08 11.9 1.36.38 2.65 1 5.16 1.95-13.3-.07-25.27.53-37.15-.14zm186.4-149l-1.13-3.3 5.08-.94zm386.3 26.8l.36.3-.74.7c.15-.4.26-.78.38-1.07zm-5-9.64q1.42 2.9 2.86 5.84l1.65 4.88-2.4-4.1q-1.63-3-3.28-6zm-21.7-4.54c11.34-1.92 16.26 5.37 20.44 14 1.34 2.76.93 4.46-2.1 5.13-4 .88-8.08 1.78-12.17 2.35s-5.7-1.4-4.42-6.4l-4.67-10.6c-.6-1.45-1-3-1.45-4.52a23.82 23.82 0 0 0 4.39-.05zm20.1 21l-.56.4-.07-.55zm-.82.55l-17 10.14c-.6.35-2.3 0-2.4-.3-.4-1.14-.76-2.74-.23-3.62a7 7 0 0 1 3.64-3.19c5.32-1.3 10.68-2.12 16-3.1zm-24.54 5.83l-3.92 8.17-1.33-.65c.67-2.86-1.58-7.25 5.25-7.52zm-8.55-11.27c1-2.2 2.45-4.25 3.7-6.37 3.2 2.67 5.24 11.43 3.3 14.47-.3.5-1.35 1.13-1.54 1a33.64 33.64 0 0 1-6.13-5c-.6-.77.08-2.9.66-4.15zm-1.2 14.34c.4-.07 1 .68 1.57 1.17l-1.77 2.46-2.12-2.47a8.84 8.84 0 0 1 2.32-1.23zm-4.88 10.78a54.28 54.28 0 0 1-7 3c-7.26.2-12.86-5-13.13-11.12-.3-6.33 5.55-13 12.15-13.48 1.85-.14 3.77.8 5.66 1.23-1.08 2.67-1.42 6.25-3.38 7.8-3.8 3-5.06 5.6-2.07 8.93.53.58 2.8 5.47 3.75-.2 0-.2 3-.44 3.9.23.63.37.65 3.25.12 3.55zm17.22 14.2c-4.94-4.15-11.36-6.52-16.92-9.57a61 61 0 0 1 6-5.23 3.71 3.71 0 0 1 3.61.56c2.54 3.54 4.75 3.24 7.56.3.9-.93 2.7-1 4.07-1.48l5.62-1.94-3.63-4 14.95-8.4a4.16 4.16 0 0 1 3.34-.35c-.83 1.5-1.28 3.6-2.55 4.36-12.83 7.73-14.57 17.12-4.83 29.5-6.36.45-11.8.76-17.22-3.8zm24 3.12a13.54 13.54 0 0 1-9.87-13.38c0-5.57 4-10.2 11-12.4 0 3.3-.15 6.4.07 9.5a8.58 8.58 0 0 0 1.52 3.92c.35.52 1.57.46 2.4.67a15.23 15.23 0 0 0 .38-2.39c0-.46-.52-.92-.52-1.38l.13-10.06c3.37 1.13 7.5 1.4 9.94 3.57 4.45 3.94 4.62 11.4 1.52 16a14.47 14.47 0 0 1-16.53 5.9zm733.9-24.1a64.5 64.5 0 0 0-7.44 2.72c-3.6 1.35-5.08-.05-4.48-3.67l4.48-26.36a9.1 9.1 0 0 1 .38-1.45c.7-2 1.44-5.73 2.17-5.73 3.8 0 7.13 4 7.17 7.68v6l-.7.05 1.6 15.72c.35 2.6-.2 4.28-3.14 4.97zm48.84-33.76c-.28 5.4-.3 10.85-.8 16.23-.12 1.26-1.76 2.38-2.7 3.56-.93-1-2.43-1.9-2.7-3.08-2-8.42 2.84-15.15 5.3-22.48l1.54.22c-.18 1.8-.5 3.65-.6 5.5zm51.43-2.2c-7 3.62-14.2 6.76-22.23 10.47.43-4.4.52-7.83 1.15-11.18 1.2-6.46 2.65-12.87 4.1-19.28.66-2.9 2.25-4.2 5.67-4 9.67.66 9.65.47 11.35 10.4.5 2.9 1.6 5.7 1.8 8.6.13 1.66-.62 4.34-1.8 4.96zm-977.97-33.8a5.67 5.67 0 0 1-3.23-.4c-2.2-1.4-5.88-15.6-4.87-18.2.1-.3.64-.6.58-.76-.82-2.23-1.1-5.14-2.72-6.5-2.58-2.17-6-3.47-9.14-4.8-2.06-.86-2.07-1.75-2.05-3.9a8.37 8.37 0 0 0-3.38-6.28c-2.28-1.38-5.62-1.42-7.2 2-1.15 2.5-2.44 3.52-4.74 1.08a2.72 2.72 0 0 0-2.26-.47c-4.3 1.13-8.6 2.26-12.77 3.73-1 .36-2.42 2.32-2.17 3 1.64 4.24-.42 8.26-.28 12.26.1 3.06 2.3 6.32 4.27 9 1.74 2.34 4.5 3.9 6.72 5.9.62.56 1.38 1.78 1.16 2.28a3.31 3.31 0 0 1-2.32 1.6 19.41 19.41 0 0 1-3.88-.48c-6.8-.7-13 .63-17.35 6.34a16.5 16.5 0 0 0 2 22.46c7.2 6.38 16.64 6.2 24-.06 2.43-2.08 3.1-6.66 7.75-5.9.18 0 .8-.86.7-1-2.4-4.24 1.83-2.8 3.2-3.72.8-.54 2.33-.72 2.5-1.36 1.46-5 5.93-5.74 9.83-7.17 2.6-1 2.27-2.2.72-3.62a18.78 18.78 0 0 0-3.63-2c1.63-2.26 3.3-4.74 5.18-7 .38-.46 1.62-.22 2.47-.3-1.76 2.6 1.94 2.2 2.06 3.76.1 1.4.77 3.2.14 4.12-4.6 6.62-5.43 14-1.48 19.93 4.47 6.76 11 9.3 19 8.3a12.84 12.84 0 0 0 11.3-12c.75-12.16-8-20.74-20.14-19.87zm-41.9 24.28c-3 2.13-6.35 3.65-9.58 5.42-8.3-1.08-14.85-7.36-14.44-14.3.46-7.6 7.7-13.46 15.55-12.8 3 .26 3 1.6 1.7 3.5s-3.4 3.6-4.5 5.7c-.93 1.77-.93 4-1.34 6.06 2.27 0 5.48 1 6.66-.15 4.1-4 4.85 2.42 7.57 2-.5 1.54-.54 3.8-1.62 4.58zm-2.26-9.84l-4.7-3.88 5.1-5.8c1.25 1.53 3.33 3 3.48 4.62.12 1.33-2.1 2.85-3.9 5.06zm9.47-1.32V77c1.23 1.34 1.43 1.45 1.43 1.58.1 2.25.15 4.5.14 6.75 0 .03-1.02.06-1.57.08zm2.75-20.3c-5-2.24-2.7-3.64 0-5.24zm7.28-3l6.44.95.18 1.1-6 2.2-.62-4.3zm4.66 9.88a23 23 0 0 1-2.39 2c-.52-.77-1.54-1.6-1.45-2.28a4.28 4.28 0 0 1 1.66-2.92 32 32 0 0 1 5.38-2l.54.8c-1.24 1.42-2.43 2.93-3.74 4.36zm.9-12.1c-5.67-2.56-10.17-6.45-11.6-12.94-.65-2.94 1-4.45 3.47-3.76a50.77 50.77 0 0 1 12.31 5c1.9 1.14 2.6 4.22 3.28 5.4.1 4.14-4.55 7.57-7.4 6.25zm20 21.3l.9 4.4c-2.5-2.6-2.6-3.16-.92-4.45zm-3.72-4c.5.85 1 1.7 1.55 2.54l-1.1.55-1.16-2.73zm16.33 21.43c-3.9 3.5-8.6 3.14-13.13 1.6-7.94-2.7-12-12-8.5-18.94 1.4-2.82 2.65-3.3 4.2-.2a62.63 62.63 0 0 0 3.05 6.14 6 6 0 0 0 3.19 2.66c1.37.32 3-.4 4.48-.66a26 26 0 0 0-2-4.09 43.33 43.33 0 0 0-3.71-4.09l-.5-5.67a50.31 50.31 0 0 1 7.19 1.46 13.89 13.89 0 0 1 9 9.92c1.08 4.4.25 8.68-3.28 11.85z" fill="#013a7a"/><g class="F"><path d="M206.08 211.15a6.58 6.58 0 0 0-2.14-1.56 12.77 12.77 0 0 0-2.8-.92 22.4 22.4 0 0 0-2.95-.4l-2.95-.1H184.7v36h8.87v-14h2.37a42.69 42.69 0 0 0 4.31-.19 10.66 10.66 0 0 0 3.3-.92 6.82 6.82 0 0 0 2.44-1.7 8.12 8.12 0 0 0 1.54-2.45 12.49 12.49 0 0 0 .78-2.83 20.07 20.07 0 0 0 .23-3.05 17.44 17.44 0 0 0-.5-4.39 8 8 0 0 0-1.97-3.49zm-6.63 10a3.32 3.32 0 0 1-.88 1.6 3.79 3.79 0 0 1-1.74.75 15.13 15.13 0 0 1-2.44.16h-.8v-9h1a13.38 13.38 0 0 1 3.48.29 2.3 2.3 0 0 1 1.33 1.58 9.48 9.48 0 0 1 .33 2.6 8.79 8.79 0 0 1-.27 2.03zm19.93.22h-.1v-4.08h-7.46v26.88h8V227.6a2.69 2.69 0 0 1 .83-2.11 4.44 4.44 0 0 1 2.5-.53 14.58 14.58 0 0 1 2.42.19v-8.64a5.94 5.94 0 0 0-4 1.3 7.35 7.35 0 0 0-2.19 3.55zm27.52-3.07a10.84 10.84 0 0 0-3.4-1.34 18.88 18.88 0 0 0-4.18-.44 17.52 17.52 0 0 0-4.39.51 9.27 9.27 0 0 0-3.37 1.56 7.17 7.17 0 0 0-2.22 2.83 10.35 10.35 0 0 0-.81 4.32v10.94a8.25 8.25 0 0 0 .83 3.82 7.14 7.14 0 0 0 2.32 2.62 10.4 10.4 0 0 0 3.43 1.46 18.6 18.6 0 0 0 4.21.46c3.4 0 6-.82 7.8-2.36s2.72-3.82 2.72-6.86v-.96h-8c0 .32-.05.57-.05.77a7.29 7.29 0 0 1-.53 2.92c-.32.65-1.07 1-2.24 1a2.32 2.32 0 0 1-1.87-.84 3.18 3.18 0 0 1-.6-2V232h13.54v-7.7a7.16 7.16 0 0 0-.85-3.58 6.57 6.57 0 0 0-2.35-2.42zm-4.8 8.64h-5.54v-1.78a4.78 4.78 0 0 1 .63-2.61 2.89 2.89 0 0 1 4.26-.1 3.11 3.11 0 0 1 .65 1.85zm30.96-7.5a6 6 0 0 0-2.12-2.14 6.33 6.33 0 0 0-3.25-.79 7.51 7.51 0 0 0-6.55 4H261v-3.26h-7.46v36h8v-11.63h.1a8 8 0 0 0 2.87 2.59 6.71 6.71 0 0 0 3 .82 6.81 6.81 0 0 0 3.51-.94 6.14 6.14 0 0 0 2.14-2.33 11.16 11.16 0 0 0 1.06-3.12 20.48 20.48 0 0 0 .3-3.6v-9.3a16 16 0 0 0-.35-3.31 10.36 10.36 0 0 0-1.11-2.98zm-6.52 14.7l-.06 1.78a4.54 4.54 0 0 1-.3 1.41 2.56 2.56 0 0 1-.75 1.06 2.12 2.12 0 0 1-1.36.4 2 2 0 0 1-1.92-1.44 9.74 9.74 0 0 1-.55-3.5v-6.34a8.83 8.83 0 0 1 .55-3.47 2.06 2.06 0 0 1 2.07-1.28 1.84 1.84 0 0 1 1.28.44 2.47 2.47 0 0 1 .71 1.1 5.4 5.4 0 0 1 .27 1.34l.06 1.54zm33.16-9.42q0-4.47-2.44-6.34c-1.63-1.24-4.4-1.87-8.34-1.87-3.46 0-6.12.7-8 2.1a7.11 7.11 0 0 0-2.14 2.81 11.09 11.09 0 0 0-.73 4.35h8v-.3a7.4 7.4 0 0 1 .69-2.95c.35-.63 1.15-.94 2.4-.94a2.26 2.26 0 0 1 1.84.82 3 3 0 0 1 .68 2 2.48 2.48 0 0 1-1.21 2.31 17.58 17.58 0 0 1-3.88 1.49l-1.87.52a18.55 18.55 0 0 0-2.72 1.11 8.21 8.21 0 0 0-2.17 1.65 7.78 7.78 0 0 0-1.53 2.6 10.73 10.73 0 0 0-.58 3.76 7 7 0 0 0 2 5.21 7.26 7.26 0 0 0 5.37 2 8.34 8.34 0 0 0 3.78-.77 11.69 11.69 0 0 0 3.12-2.5l.56 2.4h7.8a8.84 8.84 0 0 1-.66-3zm-8 10.6a6.51 6.51 0 0 1-.68 2.88 2.31 2.31 0 0 1-2.24 1.2 2.93 2.93 0 0 1-2.2-.79 2.86 2.86 0 0 1-.78-2.09 3.87 3.87 0 0 1 .51-2.07 4.61 4.61 0 0 1 1.36-1.39 13.65 13.65 0 0 1 2.27-1.15l1.76-.8zm19.47-13.96h-.1v-4.08h-7.46v26.88h8V227.6a2.65 2.65 0 0 1 .83-2.11 4.42 4.42 0 0 1 2.56-.5 14.41 14.41 0 0 1 2.42.19v-8.64a5.93 5.93 0 0 0-3.95 1.3 7.36 7.36 0 0 0-2.3 3.52zm27.53-3.07a10.84 10.84 0 0 0-3.4-1.34 18.88 18.88 0 0 0-4.18-.44 17.47 17.47 0 0 0-4.39.51 9.4 9.4 0 0 0-3.38 1.56 7.06 7.06 0 0 0-2.21 2.83 10.35 10.35 0 0 0-.81 4.32v10.94a8.25 8.25 0 0 0 .83 3.82 7.14 7.14 0 0 0 2.32 2.62 10.31 10.31 0 0 0 3.43 1.46 18.54 18.54 0 0 0 4.21.46c3.4 0 6-.82 7.8-2.36s2.72-3.82 2.72-6.86v-.96h-8a6.09 6.09 0 0 0-.05.77 7.29 7.29 0 0 1-.53 2.92c-.32.65-1.07 1-2.25 1a2.29 2.29 0 0 1-1.86-.84 3.19 3.19 0 0 1-.61-2V232h13.55v-7.7a7.16 7.16 0 0 0-.85-3.58 6.73 6.73 0 0 0-2.35-2.42zm-4.8 8.64h-5.55v-1.78a4.78 4.78 0 0 1 .63-2.61 2.41 2.41 0 0 1 2.2-1 2.38 2.38 0 0 1 2.06.89 3.06 3.06 0 0 1 .66 1.85zm24.2-7.2h-.1a7.93 7.93 0 0 0-2.67-2.45 6.76 6.76 0 0 0-3.18-.77 6.25 6.25 0 0 0-3.2.79 6.18 6.18 0 0 0-2.14 2.14 9.84 9.84 0 0 0-1.16 3 16 16 0 0 0-.35 3.31v9.3a20.48 20.48 0 0 0 .3 3.6 10.85 10.85 0 0 0 1.06 3.12 6.07 6.07 0 0 0 2.14 2.33 6.77 6.77 0 0 0 3.5.94 6.65 6.65 0 0 0 3.51-1 7.67 7.67 0 0 0 2.74-2.95h.1v3.12h7.45v-36h-8zm0 14.4a9.67 9.67 0 0 1-.48 3.45 2.25 2.25 0 0 1-3.27.8 2.35 2.35 0 0 1-.71-1.08 5.88 5.88 0 0 1-.28-1.32l-.05-1.52v-7l.08-1.8a7.09 7.09 0 0 1 .3-1.44 2.32 2.32 0 0 1 .73-1.1 2.12 2.12 0 0 1 1.36-.41 1.83 1.83 0 0 1 1.84 1.44 11.53 11.53 0 0 1 .48 3.6zm12.9 1.82h8.52v8.2H371zm24 8.2h8.87v-15.2h11.04v-7.2h-11.04v-6.38h12v-7.2H395v36zm34.3-27.65c-3.33 0-5.9.72-7.74 2.14s-2.75 3.78-2.75 7.08v10.94a8.32 8.32 0 0 0 .81 3.84 7 7 0 0 0 2.24 2.6 9.87 9.87 0 0 0 3.33 1.46 17.71 17.71 0 0 0 4.11.46 12.5 12.5 0 0 0 7.48-2c1.8-1.32 2.8-3.44 3-6.4v-10.9q0-9.22-10.48-9.22zm2.46 20.64a2.47 2.47 0 0 1-4.93 0v-12a3.93 3.93 0 0 1 .58-2.28 2.12 2.12 0 0 1 1.89-.84 2.14 2.14 0 0 1 1.89.84 4 4 0 0 1 .57 2.28zm19.24-15.8h-.1v-4.08h-7.46v26.88h8V227.6a2.65 2.65 0 0 1 .83-2.11 4.4 4.4 0 0 1 2.49-.53 14.41 14.41 0 0 1 2.42.19v-8.64a5.93 5.93 0 0 0-3.95 1.3 7.36 7.36 0 0 0-2.23 3.55zm30.48-13.2h-8.87v36h19.7v-7.2h-10.84v-28.8zm15.22 9.13h8v26.88h-8zm0-9.13h8v6.48h-8zm16.7 1.53q-1.9 1.53-2 5.28l-.05 2.35h-3.16v5.52h3.22v21.3h8v-21.3h3.42v-5.52h-3.42v-2.74a.71.71 0 0 1 .48-.69 2.88 2.88 0 0 1 1.23-.22h1.7v-5.52h-3.52q-4.02 0-5.9 1.54zm29.8 8.6a10.84 10.84 0 0 0-3.4-1.34 18.88 18.88 0 0 0-4.18-.44 17.47 17.47 0 0 0-4.39.51 9.27 9.27 0 0 0-3.37 1.56 7.17 7.17 0 0 0-2.22 2.83 10.35 10.35 0 0 0-.81 4.32v10.94a8.25 8.25 0 0 0 .83 3.82 7.14 7.14 0 0 0 2.32 2.62 10.4 10.4 0 0 0 3.43 1.46 18.6 18.6 0 0 0 4.21.46c3.4 0 6-.82 7.8-2.36s2.72-3.82 2.72-6.86v-.96h-8a6.09 6.09 0 0 0 0 .77 7.29 7.29 0 0 1-.53 2.92c-.32.65-1.07 1-2.24 1a2.31 2.31 0 0 1-1.87-.84 3.18 3.18 0 0 1-.6-2V232h13.5v-7.7a7.16 7.16 0 0 0-.85-3.58 6.65 6.65 0 0 0-2.35-2.42zm-4.8 8.64h-5.54v-1.78a4.78 4.78 0 0 1 .63-2.61 2.87 2.87 0 0 1 4.25-.1 3.06 3.06 0 0 1 .66 1.85zm11.2 9.02h8.52v8.2h-8.52zM566.13 209a5.82 5.82 0 0 0-2-1.38 7.48 7.48 0 0 0-5.48 0 5.51 5.51 0 0 0-2 1.46 6.16 6.16 0 0 0-1.15 2 7 7 0 0 0-.37 2.25 7.18 7.18 0 0 0 .37 2.29 6.3 6.3 0 0 0 1.15 2 5.49 5.49 0 0 0 2 1.45 6.91 6.91 0 0 0 2.79.53 6.67 6.67 0 0 0 2.56-.48 5.84 5.84 0 0 0 2-1.35 6.06 6.06 0 0 0 1.29-2 6.81 6.81 0 0 0 .44-2.44 7 7 0 0 0-.4-2.38 6.09 6.09 0 0 0-1.2-1.95zm-.3 6.27a4.51 4.51 0 0 1-1 1.53 4.33 4.33 0 0 1-1.52 1 5 5 0 0 1-1.92.36 5.32 5.32 0 0 1-1.91-.34 4 4 0 0 1-1.5-1 4.19 4.19 0 0 1-1-1.52 5.43 5.43 0 0 1-.34-1.93 5.37 5.37 0 0 1 .34-1.92 4.15 4.15 0 0 1 1-1.51 4 4 0 0 1 1.5-1 5.11 5.11 0 0 1 1.91-.34 5.45 5.45 0 0 1 1.92.33 4.5 4.5 0 0 1 1.52.95 4.34 4.34 0 0 1 1 1.49 5.1 5.1 0 0 1 .35 1.9 5.33 5.33 0 0 1-.35 1.96z"/><path d="M564.62 212.08a2 2 0 0 0-.57-1.58 2.71 2.71 0 0 0-1.7-.51h-3.8v6.8H560v-2.72h1.16l1.5 2.72h1.7l-1.65-2.88a2.18 2.18 0 0 0 1.39-.5 1.74 1.74 0 0 0 .5-1.33zm-1.73.62a1.48 1.48 0 0 1-.88.2h-2v-1.76h1.64a3.23 3.23 0 0 1 1 .11.75.75 0 0 1 .37.24.7.7 0 0 1 .13.42 1 1 0 0 1-.26.79zm-407.45-59.75h3.75v149.12h-3.75zM93.2 206.07S79.34 165.58 74 165.4c-4.8-.15-19.25 41.3-19.25 41.3l-1.55-.62c-15.83-9.62-25.18.6-30.42 1.24-2.5.3-4.2 4.66-5.13 6.2-6.83 11.33 11.35 38.35 13.78 32.9 6.43-14.06 10.9-12 10.9-12l.74-1.7 17.7 9.78L56 256.37a2.12 2.12 0 0 1-.41 1.86c-6.14 8-16.36-1.55-16.36-1.55 1.55 26.7 23.6 19.87 23.6 19.87L74 293.3s10-16.24 13-15.83c26.24 3.57 21.42-23.6 21.42-23.6-7.45 13.35-13.34 5.9-15.33 4.44s-2-1-2-1L87.3 243s14.25-7.77 15.06-8.54c3.57-3.4 17.34 7.48 15.06 12.26-1.7 3.57 28-16.35 10.4-38.25-9.94-12.3-34.62-2.4-34.62-2.4z"/></g><path d="M105.48 201c-3.82.28-7.36 2-10.7 3.07-.56-4.28-2.24-8.1-3.73-12-4.94-11.27-12.58-21.52-16.86-32.8-5.4 15.46-17.42 28.22-20.3 44.7l-5.78-2.14c-9.6-3.08-20.77-.93-27.38 6.6a44.44 44.44 0 0 0 5 .09L29 206.6c8.85-4.47 20.4-2.23 27.66 3.63.56-16.3 10.9-28.6 17.42-42.47l.28-.1c6.52 14.06 17.13 26.45 17.7 42.84l4-2.7c7.45-4.75 19.46-4.65 26.64.75l5.12-.1a24.17 24.17 0 0 0-22.33-7.49zM72 206.63l4.84-.1-2.42-35.95L72 206.63zM30.13 243.7a21.4 21.4 0 0 1-6.62-5.7c-4.84-6-6.7-15.18-3.54-22.35L17.65 213c-2.7 4.38-3.26 10.16-2.24 15.47 1.68 9.4 9.78 18.44 18.72 21.88-.37-2.14-.74-4.75-.1-6.9a12.74 12.74 0 0 1 8.29-8.94L38.6 232c-4.75 2.1-7.36 7-8.47 11.7zm98.44-27.94a22.43 22.43 0 0 1-1.49 19.37c-2.14 3.26-5.12 7.27-8.75 8.66-.93-4.65-3.63-9.68-8.48-11.55-1.1.94-2.6 1.6-3.44 2.52a11.62 11.62 0 0 1 4 2.05c4.1 3.26 5 8.66 4 13.6a31.17 31.17 0 0 0 14.71-12.2c4.66-6.9 6-17.33 2-25a8.29 8.29 0 0 0-2.55 2.55zM29.1 228.33L27.6 224a46 46 0 0 1-1.86 4.56c-1.6.28-3.17-.1-4.66.37l3.73 2.6-1.4 4.75c1.5-.75 2.8-2 4.28-2.6a25.19 25.19 0 0 0 4 2.7 17.54 17.54 0 0 1-1.3-4.84c1.2-1 2.88-1.77 3.72-2.9a17.71 17.71 0 0 1-5.02-.32zm95.2.37c-2.8.46-2.24-3.26-3.35-4.66l-1.68 4.56-4.94.28 4 3-1.5 4.66 4.2-2.8 4.1 2.6-1.4-4.47 3.73-3a17.28 17.28 0 0 0-3.16-.18zm-61.76 9.8a17.39 17.39 0 0 0 1.58 7.51v-6.52c.56-1.27-.93-1-1.58-1zM66 250.3l2 2.33v-14.06l-1.68-.1c-.62 3.72-.15 7.45-.32 11.82zm3.9-11.8c-.38 5 0 10.15-.2 15.74 0 1 1.4 1.77 2.05 1.86a567.81 567.81 0 0 0 0-17.51zm3.72.01c-.37 6.14-.28 12.66-.1 18.9.65.56 1.3.28 1.86-.28l-.1-18.62zm3.82 0c-.56 4.93.1 12.1-.1 17.4.74-.1 1.4-1 1.86-1.58l-.1-15.74zm3.46.08v13.6l.18.37a6.91 6.91 0 0 0 1.68-2.7l-.1-11.36a5.55 5.55 0 0 0-1.77.09zm4.1-.08a33 33 0 0 0-.1 7.45c1-2.05 1.2-4.47 1.58-6.8.27-1.03-.94-.56-1.48-.65zm17.3 21.22a9 9 0 0 1-9.22-1.4c-.93.66-2 1.12-2.6 2.05a14.86 14.86 0 0 0 5.68 3.36 11.19 11.19 0 0 0 10.9-3h.56a19.13 19.13 0 0 1-2.8 9.31 13.89 13.89 0 0 1-10.33 6.7c-3.92.66-7.08-1.1-9.88-3.44-2.42 6.33-5.4 12.48-10.24 17.7-4.85-5.4-7.73-11.74-10.43-17.9-1.77 2-3.92 2.7-6.06 3.45-5.4.93-10.15-1.5-13.4-5.68a16.93 16.93 0 0 1-3.17-10.53 11.21 11.21 0 0 0 7.17 3.54 11.58 11.58 0 0 0 9.69-3.89 11.79 11.79 0 0 0-2.61-1.77 8.87 8.87 0 0 1-9.4 1.21 11.39 11.39 0 0 1-6-10.24 18.74 18.74 0 0 0-2.43 6.24c-.93 7.9.66 15.64 6.9 20.95 4.65 4 12.3 5.3 17.88 2.43 3 6.05 6.6 12.1 11.83 16.85a44.65 44.65 0 0 0 7.3-8.67c1.68-2.7 3.08-5.68 4.75-8.1a17.51 17.51 0 0 0 5.31 1.58c6.9.47 13-3.17 16.5-8.94 3.9-6.33 4.2-15.93.18-22.26 0 4.3-1.95 8.5-6.05 10.44z" fill="#ce1126"/><path d="M78.56 227.5c-5.6-2-10.8 1.3-16.2 2a64.87 64.87 0 0 0 .1 7.45l24.12-.1-.1-7.55-7.9-1.8zm4.94-5.5c-.56.37-1.5.47-1.87-.2a45.7 45.7 0 0 1-2-10.8l1.3-2.24c-2.33.28-4.75-.74-7.36-.37a4.79 4.79 0 0 0-3.45 2.8c-1.5-.1-3-.47-4.28.37a3.36 3.36 0 0 0-.47 2.33c.37.56.56 1.86 1.5 1.58a2.24 2.24 0 0 1-.37-1.4c1.58-1 3.54-.28 5.4-.65.47-.28 1.4-.65 1.2-1.3-.65.28-1.2-.2-1.67-.47l.18-.28c1.87-.28 4.47-1 5.87.75A79.3 79.3 0 0 0 79 222.56a39.91 39.91 0 0 1-8.19-.19 48.12 48.12 0 0 0 1.86-6.24c-.93-2.14-3.73-1.58-5.6-1.77.47 1.3 2 1.68 3.08 2.24-1 2.05-1.6 5.77-4.48 5.6-6.23-4.85-10.9-11.83-18.9-12.2H18.1l-.37.2a4.86 4.86 0 0 0 3.54 2.83l12.1.94.37.28-13 .28c2.8 4.28 8.85 2.32 13.22 3.44-3.26.47-6.7-.1-9.68.56.93.93 1.95 2.24 3.35 2.7l10.43 1c-3 .37-6 .1-9.13.18l-.37.2c3.08 4.84 9.13 2.42 13.7 3.63v.2l-8.3.1-.37.28c3.35 4 9.13 2.23 13.4 3.45l-7.9.37c3.07 3.44 7.82 3 12 3.72-1.95.47-3.44.1-5.3.38a36.77 36.77 0 0 0 4.85 2.7c2 .46 4.28.28 6.14 1-1.4.28-2.6-.18-3.82.28l6.8 3.73.38.65a103.15 103.15 0 0 1-8.29 8.48c1.4 2.88 4.47 5.12 7.08 6.8l4.28-10.15c-3.1-5.67-2.45-13.16-2.22-20.1l13.7-2.88L87.4 228l.65.47c0 7.07.37 14.25-2.6 20.12l4.28 10a19.81 19.81 0 0 0 7.18-6.7l-8.2-8.2-.1-.65c2.14-1.68 4.93-2.8 7-4.3l-3.9-.18c4.1-.47 8.2-1 11.08-3.82l-5.5-.2c4.28-.93 9.22-.2 12.2-3.82l-7.54-.37c4.28-1.2 10 .46 13-3.54-3-.28-6.15.1-9-.37 4.66-1.2 11.18 1.2 14.07-3.82l-9.13-.1-.37-.2c4.56-1.3 11.17 1.2 13.78-3.82l-8.66-.2-.28-.28c4.1-1.1 10.06.94 12.4-3.44l-12.2-.1-.37-.38c4.47-.46 9.13-.37 13.32-1.3a4.16 4.16 0 0 0 2.24-2.61l-28-.1c-8.07.01-13.47 6.84-19.24 11.84zm-19.56 27.94l-4.38 10.52c0 1 1.3.75 1.4 1.6-1.5 2.9-4.38 3.35-7.55 3a2.13 2.13 0 0 0-1 2.42c.18.75.93 1.77 1.67 1.77-.1-.65-.74-1.58.1-2.05l9.78-.1.74.37c.28.47-.1 1-.1 1.5.37.2.46-.28.74-.28a2.85 2.85 0 0 0 .56-2.7c-.56-1.86-3.07-.1-4-1.5l1.3-1.77c1 .2 2 1 3.07.56l2.8-7.17c-2.35-1.8-3.47-4.3-5.14-6.17zM87.7 262c.46-.47 1.4-.56 1.5-1.4l-4.47-10.43a47.7 47.7 0 0 1-5 6.24 38.32 38.32 0 0 0 3.07 7.26l2.8-.65c.38.65 1.12 1.12 1.3 1.86-.84.66-2 .2-3.08.38-1.2.28-1.2 1.67-1 2.6.37.47.74 1.5 1.4 1.3-.1-.56-.66-1.5.18-1.86l9.88-.1c1.2.2.55 1.68.55 2.24l1.3-1.3a2.57 2.57 0 0 0-.28-2.7c-3.22-.22-6.94-.13-8.15-3.44zm-13.15-2.56a12.21 12.21 0 0 1-4.19-2.23 16.66 16.66 0 0 0-2 5.31c3.8.83 8.2 1.2 12 .1l-2-5.22a17 17 0 0 1-3.81 2.05z" fill="#003f87"/><path d="M65 230.6l-.43-.87-.43.87-.97.14.7.7-.16.96.86-.46.86.46-.16-.96.7-.7-.96-.14z" class="F"/><path d="M65 230.6l-.43-.87-.43.87-.97.14.7.7-.16.96.86-.46.86.46-.16-.96.7-.7-.96-.14z" class="G H I J"/><path d="M68.48 229.95l-.43-.88-.43.88-.96.14.7.68-.16.96.86-.46.87.46-.17-.96.7-.68-.97-.14z" class="F"/><path d="M68.48 229.95l-.43-.88-.43.88-.96.14.7.68-.16.96.86-.46.87.46-.17-.96.7-.68-.97-.14z" class="G H I J"/><path d="M71.75 229.32l-.43-.87-.43.87-.97.15.7.68-.16.96.86-.46.86.46-.16-.96.7-.68-.97-.15z" class="F"/><path d="M71.75 229.32l-.43-.87-.43.87-.97.15.7.68-.16.96.86-.46.86.46-.16-.96.7-.68-.97-.15z" class="G H I J"/><path d="M74.83 228.74l-.44-.87-.43.87-.97.15.7.67-.16.97.86-.46.87.46-.17-.97.7-.67-.96-.15z" class="F"/><path d="M74.83 228.74l-.44-.87-.43.87-.97.15.7.67-.16.97.86-.46.87.46-.17-.97.7-.67-.96-.15z" class="G H I J"/><path d="M78.1 229.2l-.43-.87-.43.87-.96.14.7.68-.16.96.86-.45.87.45-.17-.96.7-.68-.97-.14z" class="F"/><path d="M78.1 229.2l-.43-.87-.43.87-.96.14.7.68-.16.96.86-.45.87.45-.17-.96.7-.68-.97-.14z" class="G H I J"/><path d="M81.52 230.15l-.43-.88-.43.88-.97.13.7.7-.16.96.86-.45.86.45-.17-.96.7-.7-.97-.13z" class="F"/><path d="M81.52 230.15l-.43-.88-.43.88-.97.13.7.7-.16.96.86-.45.86.45-.17-.96.7-.7-.97-.13z" class="G H I J"/><path d="M84.68 230.88l-.43-.87-.44.87-.96.14.7.68-.16.96.86-.45.86.45-.16-.96.7-.68-.96-.14z" class="F"/><path d="M84.68 230.88l-.43-.87-.44.87-.96.14.7.68-.16.96.86-.45.86.45-.16-.96.7-.68-.96-.14z" class="G H I J"/><path d="M65.06 234.3l-.43-.88-.44.88-.96.14.7.68-.16.96.87-.45.86.45-.17-.96.7-.68-.96-.14z" class="F"/><path d="M65.06 234.3l-.43-.88-.44.88-.96.14.7.68-.16.96.87-.45.86.45-.17-.96.7-.68-.96-.14z" class="G H I J"/><path d="M68.9 234.35l-.44-.87-.43.87-.96.14.7.68-.16.96.86-.45.87.45-.17-.96.7-.68-.96-.14z" class="F"/><path d="M68.9 234.35l-.44-.87-.43.87-.96.14.7.68-.16.96.86-.45.87.45-.17-.96.7-.68-.96-.14z" class="G H I J"/><path d="M72.92 234.27l-.43-.88-.44.88-.96.14.7.68-.17.96.87-.46.86.46-.16-.96.7-.68-.96-.14z" class="F"/><path d="M72.92 234.27l-.43-.88-.44.88-.96.14.7.68-.17.96.87-.46.86.46-.16-.96.7-.68-.96-.14z" class="G H I J"/><path d="M76.7 234.35l-.43-.87-.43.87-.97.14.7.68-.17.96.87-.45.86.45-.16-.96.7-.68-.97-.14z" class="F"/><path d="M76.7 234.35l-.43-.87-.43.87-.97.14.7.68-.17.96.87-.45.86.45-.16-.96.7-.68-.97-.14z" class="G H I J"/><path d="M80.55 234.43l-.44-.88-.42.88-.97.13.7.7-.17.96.86-.46.87.46-.16-.96.7-.7-.96-.13z" class="F"/><path d="M80.55 234.43l-.44-.88-.42.88-.97.13.7.7-.17.96.86-.46.87.46-.16-.96.7-.7-.96-.13z" class="G H I J"/><path d="M84.63 234.5l-.43-.88-.43.88-.96.14.7.68-.17.96.86-.45.87.45-.17-.96.7-.68-.97-.14z" class="F"/><path d="M84.63 234.5l-.43-.88-.43.88-.96.14.7.68-.17.96.86-.45.87.45-.17-.96.7-.68-.97-.14z" class="G H I J"/><g class="F"><path d="M124.18 269.12a5.59 5.59 0 0 0-2-1.38 7.35 7.35 0 0 0-5.48 0 5.53 5.53 0 0 0-2 1.45 6.12 6.12 0 0 0-1.15 2 7 7 0 0 0-.38 2.24 7.14 7.14 0 0 0 .38 2.29 5.93 5.93 0 0 0 1.15 2 5.53 5.53 0 0 0 2 1.45 6.82 6.82 0 0 0 2.8.54 6.71 6.71 0 0 0 2.56-.48 5.89 5.89 0 0 0 2-1.35 6.06 6.06 0 0 0 1.29-2 6.66 6.66 0 0 0 .45-2.45 7 7 0 0 0-.41-2.37 6.07 6.07 0 0 0-1.21-1.94zm-.3 6.26a4.34 4.34 0 0 1-1 1.54 4.28 4.28 0 0 1-1.52 1 5.17 5.17 0 0 1-1.92.35 5.36 5.36 0 0 1-1.91-.33 4.12 4.12 0 0 1-1.49-1 4.28 4.28 0 0 1-1-1.52 5.65 5.65 0 0 1 0-3.86 4.21 4.21 0 0 1 2.45-2.48 5.72 5.72 0 0 1 3.83 0 4.24 4.24 0 0 1 2.51 2.44 5.06 5.06 0 0 1 .34 1.9 5.31 5.31 0 0 1-.29 1.96z"/><path d="M122.66 272.24a2 2 0 0 0-.56-1.58 2.78 2.78 0 0 0-1.71-.52h-3.8v6.8h1.5v-2.72h1.17l1.5 2.72h1.72l-1.65-2.88a2.18 2.18 0 0 0 1.39-.49 1.73 1.73 0 0 0 .46-1.33zm-1.72.62a1.52 1.52 0 0 1-.88.2h-2v-1.76h1.65a3 3 0 0 1 1 .11.68.68 0 0 1 .36.24.59.59 0 0 1 .13.41 1 1 0 0 1-.26.8z"/></g></svg>